<svg width="16" height="16" viewBox="0 0 16 16" fill="none" xmlns="http://www.w3.org/2000/svg">
<g clip-path="url(#clip0_25_568)">
<path d="M0.690097 5.12254C0.362201 5.54078 0.204945 5.98913 0.22502 6.45086C0.245095 6.95943 0.472615 7.35759 0.659985 7.60184C0.442502 8.14387 0.358856 8.99707 1.08491 9.65956C1.61691 10.1447 2.52029 10.3622 3.77165 10.302C4.65162 10.2618 5.38771 10.0979 5.41783 10.0912H5.42117C5.58847 10.0611 5.7658 10.0243 5.94648 9.98411C5.95986 10.1982 5.92305 10.7302 5.52824 11.9281C5.05982 13.3534 5.08658 14.4442 5.61523 15.1736C6.17065 15.9398 7.05731 16 7.31829 16C7.56923 16 7.80009 15.8963 7.96404 15.7056C8.33543 15.2739 8.29194 14.4776 8.2451 14.1096C8.68675 12.9251 9.92473 10.0209 10.972 9.21455C10.9921 9.20117 11.0088 9.18444 11.0255 9.16771C11.3333 8.84316 11.5408 8.49184 11.6813 8.18402C11.8787 8.29109 12.1029 8.35132 12.3438 8.35132H14.3848C15.1543 8.35132 15.7767 7.72564 15.7767 6.95943L15.7767 1.52238C15.7767 0.752823 15.151 0.13049 14.3848 0.13049H12.3438C12.046 0.13049 11.7683 0.224174 11.5408 0.384776L10.7545 0.291092C10.6341 0.274363 8.49269 0.00334677 6.29445 0.0468432C5.89629 0.0167303 5.52155 6.91496e-08 5.17358 6.91496e-08C4.57466 6.91496e-08 4.05271 0.0468428 3.61774 0.140527C2.5939 0.35801 1.89462 0.792974 1.53995 1.43204C1.26894 1.92054 1.26893 2.40569 1.31243 2.71351C0.646601 3.31577 0.529496 3.9816 0.552917 4.45002C0.566301 4.72104 0.626526 4.9519 0.690097 5.12254ZM14.3848 1.03388C14.6558 1.03388 14.8733 1.25471 14.8733 1.52238L14.8733 6.96278C14.8733 7.23379 14.6525 7.45128 14.3848 7.45128H12.3438C12.0728 7.45128 11.8553 7.23045 11.8553 6.96278L11.8553 1.52572C11.8553 1.25471 12.0761 1.03722 12.3438 1.03722H14.3848V1.03388ZM1.54664 5.51401C1.68717 5.36679 1.71394 5.14262 1.60687 4.96863C1.60687 4.96529 1.46969 4.73108 1.45296 4.40987C1.42954 3.97156 1.64033 3.58344 2.08198 3.2522C2.23924 3.13174 2.30281 2.9243 2.23589 2.73693C2.23589 2.73358 2.09202 2.29193 2.32623 1.87369C2.55041 1.47219 3.04894 1.18444 3.80511 1.02384C4.41072 0.89335 5.2338 0.86993 6.24426 0.950231H6.2911C8.4425 0.903389 10.6173 1.18444 10.6407 1.18779H10.6441L10.982 1.22794C10.962 1.32162 10.9519 1.422 10.9519 1.52238L10.9519 6.96278C10.9519 7.10665 10.9753 7.24718 11.0155 7.37767C10.9553 7.60184 10.788 8.10038 10.3932 8.5253C8.89085 9.71644 7.42201 13.7348 7.35844 13.9088C7.33167 13.9791 7.32498 14.056 7.33836 14.133C7.39524 14.5077 7.37517 14.9661 7.29487 15.1033C7.11753 15.1 6.63907 15.0498 6.35133 14.6516C6.01005 14.1798 6.02343 13.3367 6.39148 12.2192C6.95359 10.5161 7.00043 9.61941 6.55543 9.22459C6.3346 9.02719 6.04016 9.01715 5.82602 9.0941C5.62192 9.14095 5.42786 9.1811 5.24384 9.21121C5.23046 9.21455 5.21373 9.2179 5.20034 9.22125C4.17316 9.44542 2.33292 9.5826 1.69386 9.00042C1.15183 8.50523 1.53661 7.84944 1.5801 7.77917C1.7039 7.5918 1.66709 7.34755 1.4998 7.19699C1.49645 7.19364 1.14514 6.8624 1.12841 6.4174C1.11502 6.11962 1.25555 5.81514 1.54664 5.51401Z" fill="#290247"/>
</g>
<defs>
<clipPath id="clip0_25_568">
<rect width="16" height="16" fill="white" transform="matrix(-1 0 0 -1 16 16)"/>
</clipPath>
</defs>
</svg>
